# xmcd
#
# Track frame offsets:
#	182
#	19890
#	36195
#	51585
#	67937
#	82967
#	97745
#	113412
#	127802
#	142972
#	157035
#	173240
#	188962
#	205160
#
# Disc length: 2960 seconds
#
# Revision: 0
# Processed by: cddbd v1.5.1PL0 Copyright (c) Steve Scherf et al.
# Submitted via: dBpowerAMP V4.0
#
DISCID=b20b8e0e
DTITLE=José Velez - Sus mejores momentos
DYEAR=1900
DGENRE=Romántico
TTITLE0=El vino griego
TTITLE1=Con una copa de más
TTITLE2=Así soy yo
TTITLE3=Despiértate mujer
TTITLE4=A cara o cruz
TTITLE5=Un poco de mí
TTITLE6=El ha llegado a la ciudad
TTITLE7=Ve co él
TTITLE8=El ganador
TTITLE9=Bailemos un vals
TTITLE10=Bailarina
TTITLE11=Hoy canto por no llorar
TTITLE12=Me estoy acostumbrando a tí
TTITLE13=Un año más
EXTD=
EXTT0=
EXTT1=
EXTT2=
EXTT3=
EXTT4=
EXTT5=
EXTT6=
EXTT7=
EXTT8=
EXTT9=
EXTT10=
EXTT11=
EXTT12=
EXTT13=
PLAYORDER=
